<?xml version="1.0" standalone="no"?><!DOCTYPE svg PUBLIC "-//W3C//DTD SVG 1.1//EN" "http://www.w3.org/Graphics/SVG/1.1/DTD/svg11.dtd"><svg t="1742048356707" class="icon" viewBox="0 0 1049 1024" version="1.1" xmlns="http://www.w3.org/2000/svg" p-id="13604" xmlns:xlink="http://www.w3.org/1999/xlink" width="204.8828125" height="200"><path d="M685.200678 190.588123a428.344693 428.344693 0 0 1 160.534236 31.033638 355.813626 355.813626 0 1 0-589.370816 377.277813 429.283751 429.283751 0 0 1 428.83658-408.311451z" fill="#08BE61" p-id="13605"></path><path d="M693.607485 263.87938a354.829851 354.829851 0 0 0-127.130594 23.476455 429.283751 429.283751 0 0 1 201.942231 680.235878A355.813626 355.813626 0 0 0 693.607485 263.87938z" fill="#08BE61" p-id="13606"></path><path d="M515.052275 789.349522a453.60983 453.60983 0 0 1-74.409184-6.170954c-11.581718-1.341512-23.208153-3.04076-34.968739-5.142462-15.337951-2.727741-108.304713 93.011479-134.956079 72.978238-24.236645-18.199842 11.671152-102.58093 4.471706-129.903052a455.845683 455.845683 0 0 1-209.186395-310.828266A395.075202 395.075202 0 1 0 783.309902 702.106543a453.252094 453.252094 0 0 1-268.257627 87.242979z" fill="#08BE61" p-id="13607"></path></svg>